<?xml version="1.0" encoding="UTF-8"?>
<svg id="Layer_2" data-name="Layer 2" xmlns="http://www.w3.org/2000/svg" viewBox="0 0 1027.45 262.96">
  <defs>
    <style>
      .cls-1 {
        fill: #e8c157;
      }

      .cls-2 {
        isolation: isolate;
      }

      .cls-3 {
        fill: #4a181f;
      }
    </style>
  </defs>
  <g id="Layer_1-2" data-name="Layer 1-2">
    <g>
      <g>
        <g>
          <path class="cls-3" d="M461.41,178.58c-2.19.21-4.41.31-6.65.31s-7.43-.26-15.57-.78c-2.92-.21-7.02-.84-12.29-1.88-5.27-1.04-9.45-1.88-12.52-2.5-3.08-.63-7.77-1.72-14.09-3.29-6.31-1.57-11.11-2.79-14.4-3.68s-8.71-2.32-16.28-4.3-13.17-3.5-16.83-4.54l-4.7-1.1,61.04-109.09v-1.41c-.52.31-2.3.73-5.32,1.25-3.03.52-6.73.78-11.11.78h-49.93c-3.24,0-6.81-.31-10.72-.94-3.91-.62-6.65-1.25-8.22-1.88v27.23h1.56v-1.88c0-4.8,1.43-8.63,4.3-11.5s6.7-4.36,11.5-4.46h37.88l-57.44,101.74v1.41h1.1c7.3.1,16.38,2.4,27.23,6.89,4.9,1.98,10.23,4.2,15.97,6.65s11.37,4.93,16.9,7.43c5.53,2.51,11.32,4.8,17.37,6.89,6.05,2.08,11.89,3.89,17.53,5.4,5.63,1.51,10.25,2.37,13.85,2.58s6.81.31,9.62.31,6.47-.42,10.96-1.25c4.48-.84,9.21-2.71,14.17-5.63,4.95-2.92,9.47-6.84,13.54-11.74l-1.1-1.1c-4.7,1.88-10.49,3.24-17.37,4.07h.02Z"/>
          <path class="cls-3" d="M508.99,139.53c-2.82,3.81-6.21,6.73-10.17,8.76s-8.56,3.05-13.77,3.05h-20.5v-43.98h20.66c3.86.11,7.04,1.41,9.55,3.91,2.51,2.51,3.76,5.63,3.76,9.39v1.41h1.57v-36h-1.57v1.25c0,3.76-1.25,6.91-3.76,9.47s-5.69,3.89-9.55,3.99h-20.66v-45.55h27.83c3.9.45,7.07,1.91,9.5,4.38,2.87,2.92,4.3,6.78,4.3,11.58v1.88h1.57v-27.39c-.94.42-2.51.84-4.7,1.25-2.19.42-4.57.78-7.12,1.1-2.56.31-4.98.47-7.28.47h-59.64v1.56h2.03c2.71,0,5.03.97,6.97,2.9,1.93,1.93,2.95,4.25,3.05,6.97v86.71c-.11,2.71-1.12,5.03-3.05,6.97-1.93,1.93-4.25,2.89-6.97,2.89h-2.03v1.57h81.08l7.2-31.93h-1.57c-1.67,5.11-3.91,9.57-6.73,13.38h0Z"/>
          <path class="cls-3" d="M639.64,48.51h-34.44v1.56h2.97c2.71,0,4.98.91,6.81,2.74s2.79,4.1,2.9,6.81v61.87l-79.04-75.33h-1.57c1.25,7.2,1.88,13.72,1.88,19.57v81.23c0,2.61-.94,4.85-2.82,6.73-1.88,1.88-4.12,2.82-6.73,2.82h-2.97v1.57h47.42v-1.57h-2.97c-2.61,0-4.85-.94-6.73-2.82s-2.82-4.12-2.82-6.73h-.02l-.11-62.02,79.17,75.33h1.41c-.62-3.34-1.1-6.55-1.41-9.62-.31-3.08-.47-6.55-.47-10.41V59.62c.1-2.71,1.1-4.98,2.98-6.81s4.12-2.74,6.73-2.74h2.82v-1.56h-12.99Z"/>
          <path class="cls-3" d="M752.88,53.28c-9.24-4.64-20.11-6.97-32.63-6.97s-23.4,2.32-32.64,6.97c-9.23,4.65-16.35,11.22-21.36,19.72-5.01,8.51-7.51,18.6-7.51,30.29s2.51,21.91,7.51,30.36c5.01,8.45,12.13,15,21.36,19.64,9.24,4.65,20.11,6.97,32.64,6.97s23.4-2.32,32.63-6.97c9.24-4.64,16.38-11.21,21.44-19.72,5.06-8.5,7.59-18.6,7.59-30.29s-2.53-21.91-7.59-30.37c-5.06-8.45-12.21-15-21.44-19.64h0ZM751.79,130.06c-2.87,7.51-6.99,13.33-12.37,17.45s-11.76,6.18-19.17,6.18-13.64-2.06-19.02-6.18-9.52-9.94-12.44-17.45c-2.92-7.51-4.38-16.43-4.38-26.76s1.46-19.25,4.38-26.77c2.92-7.51,7.07-13.33,12.44-17.45s11.71-6.18,19.02-6.18,13.8,2.06,19.17,6.18,9.49,9.94,12.37,17.45c2.87,7.51,4.3,16.44,4.3,26.77s-1.44,19.25-4.3,26.76Z"/>
          <path class="cls-3" d="M891.17,151.42c-1.88-1.72-3.97-3.99-6.26-6.81-1.46-1.88-3.08-4.07-4.85-6.57-1.78-2.51-3.47-4.98-5.09-7.44-1.62-2.45-2.98-4.51-4.07-6.18-1.1-1.67-1.7-2.61-1.8-2.82-1.77-2.71-4.04-5.42-6.81-8.14-2.77-2.71-5.82-4.59-9.16-5.63,5.95-.63,10.8-2.48,14.56-5.56,3.76-3.08,6.55-6.78,8.38-11.11,1.82-4.33,2.74-8.69,2.74-13.07,0-5.53-1.04-10.17-3.13-13.93-2.09-3.76-4.88-6.78-8.38-9.08-3.5-2.3-7.49-3.97-11.97-5.01-4.49-1.04-9.08-1.56-13.77-1.56h-53.69v1.56h2.04c2.71,0,5.03.97,6.97,2.9,1.93,1.93,2.94,4.25,3.05,6.97v86.71c-.11,2.71-1.12,5.03-3.05,6.97-1.93,1.93-4.25,2.89-6.97,2.89h-2.04v1.57h47.43v-1.57h-1.88c-2.71,0-5.06-.96-7.04-2.89s-2.97-4.25-2.97-6.97V55.4h2.43c1.41,0,2.98-.02,4.7-.08,1.72-.05,3.31-.02,4.77.08,5.11.11,9.39,1.9,12.84,5.4,3.44,3.5,5.32,9,5.63,16.51.1,1.57.08,2.97-.08,4.23-.16,1.25-.34,2.35-.55,3.29-.84,4.59-2.3,8.19-4.38,10.8-2.09,2.61-4.46,4.49-7.12,5.63-2.66,1.15-5.4,1.72-8.22,1.72h-4.85v1.57c2.08.31,4.04,1.31,5.87,2.97,1.83,1.67,3.42,4.17,4.77,7.51.31.94.83,2.25,1.57,3.91.73,1.67,1.59,3.52,2.58,5.56.99,2.03,2.01,4.15,3.05,6.34s2.06,4.25,3.05,6.18,1.9,3.52,2.74,4.77c2.61,4.07,5.69,7.28,9.24,9.62,3.55,2.35,7.61,4.05,12.21,5.09,4.59,1.04,9.7,1.57,15.34,1.57h15.31v-1.57c-2.71-.1-5.09-.55-7.17-1.33-2.09-.78-4.07-2.03-5.95-3.76h-.02Z"/>
          <path class="cls-3" d="M1026.2,156.51c-2.4,0-4.85-.75-7.36-2.27-2.36-1.42-4.38-3.78-6.09-7.01l-46.5-101.85h-1.41c0,1.15-.37,2.74-1.1,4.77s-1.54,4.15-2.43,6.34-1.72,4.15-2.5,5.87-1.33,2.89-1.65,3.52l-36.44,82.44c-1.51,2.66-3.31,4.66-5.43,5.92-2.56,1.52-5.03,2.27-7.43,2.27h-1.41v1.57h33.5v-1.57h-1.41c-1.25,0-2.5-.39-3.76-1.17-1.25-.78-2.14-1.9-2.66-3.37-.5-1.38-.36-3.06.36-5l8.16-19.58h36.73l7.69,19.25h-.04c1.25,3.13,1.1,5.56-.47,7.28-1.56,1.72-3.39,2.58-5.48,2.58h-1.41v1.57h49.77v-1.57h-1.25.02ZM943.4,120.82l16.02-38.44,15.35,38.44s-31.37,0-31.37,0Z"/>
        </g>
        <g>
          <g>
            <path class="cls-1" d="M206.02,14.48c-22.79-6.55-43.05-6.06-64.52,4.33-26.72,12.93-53.22,32.49-79.72,46.59-1.22.65-6.16,3.53-6.91,2.92l4.19-11.85c24.9-13.08,48.94-30.39,73.8-43.19,21.04-10.83,42.66-13.82,65.16-4.75.9.36,10.13,4.11,8.01,5.96h0Z"/>
            <path class="cls-1" d="M252.01,83.43c10.66,11.54,19,28.57,20.26,44.45.1,1.31,1.1,6.23-1.52,5.67-3.6-8.35-5.44-17.32-9.82-25.39-8.52-15.68-21.24-25.15-35.95-34.45-24.64-15.6-51-28.99-75.89-44.2.57-1.18,10.15-5.35,12.08-3.9,23.94,16.21,50.74,28.42,74.8,44.35,6.33,4.19,10.94,7.95,16.04,13.47h0Z"/>
            <path class="cls-1" d="M123.2,232.96l-9.24,4.66-80.13-46.26C13.49,177.09.09,153.51,0,128.38c1.63-.31,2.27.34,2.87,1.78,1.73,4.16,2.63,11.13,4.62,16.09,4.42,11.03,11.81,21.19,20.45,29.25,30.21,21.42,63.24,38.84,95.26,57.46h0Z"/>
            <path class="cls-1" d="M216.37,194.64c.13,4.04.34,8.97-3.12,11.88-25.16,12.71-49.03,30.17-73.82,43.17-23.45,12.29-49.82,13.74-73.16.33-.42-2.26.93-1.57,2.48-1.45,10.89.87,18.15,4.89,31.2,4.09,29.7-1.8,79.13-37.42,106.42-53.02,1.2-.69,9.64-5.41,10.01-4.99h0Z"/>
            <path class="cls-1" d="M71.43,10.35c.44,1.94-1.09,2.46-2.06,3.62-19.46,23.39-25.42,33.3-26.96,65.18-1.48,30.43,1.62,61.25-.47,91.66-2.46-3.21-7.71-4.16-7.82-8.74,1.7-30.13-2.08-62.36,0-92.24,1.62-23.18,15.9-49.48,37.31-59.48Z"/>
            <path class="cls-1" d="M200.85,252.61l14.3-18.3c24.53-36.15,11.57-96.97,14.69-139.59.11-1.54-.8-3,1.54-2.56,2.3,2.83,6.57,4.83,6.8,8.74-4.33,41.95,11.66,98.82-16.19,134.04-1.81,2.29-18.93,19.78-21.13,17.68h0Z"/>
            <path class="cls-1" d="M130.44,0L63.15,39.33c-.67-.66,6.32-9.77,7.27-10.83C84.91,12.24,108.35-.3,130.44,0Z"/>
            <path class="cls-1" d="M209.13,223.63c-13.63,23.34-41.3,38.93-68.33,39.32l68.33-39.32Z"/>
            <path class="cls-1" d="M94.21,242.25c-26.99-2.13-53.75-16.46-67.29-40.36l67.29,40.36Z"/>
            <path class="cls-1" d="M245.36,61.08l-67.29-40.37c22.52.93,44.14,11.78,59.04,28.43,1.08,1.21,9,11.15,8.25,11.93h0Z"/>
            <path class="cls-1" d="M250.54,191.53v-78.68c1.62.81,2.91,4.52,3.61,6.23,7.72,18.99,8.36,38.17,3.11,57.95-1.23,4.62-3.03,11.41-6.72,14.5h0Z"/>
            <path class="cls-1" d="M21.74,150.12c-1.62-.81-2.91-4.51-3.61-6.23-7.27-17.85-8.19-36.8-3.78-55.51,1.25-5.32,3.63-13.08,7.39-16.94v78.68Z"/>
          </g>
          <path class="cls-1" d="M134.92,79.46c.61-.13.9.47,1,1,.3,1.74.18,4.13.45,5.95,4.18,28.25,19.4,37.82,46.29,41.07,1.73.21,1.91,1.36.39,1.62-1.7.29-4.09.18-5.96.46-28.34,4.22-37.91,19.3-41.16,46.19-.21,1.73-1.36,1.91-1.62.38-.61-3.61-.6-7.22-1.4-11.01-5.34-25.37-21.39-33.12-45.34-36.01-1.73-.21-1.91-1.36-.39-1.61,3.6-.61,7.28-.62,11.03-1.4,21.58-4.49,32.44-18.42,35.64-39.68.17-1.12.25-6.78,1.06-6.95h0Z"/>
        </g>
      </g>
      <g class="cls-2">
        <g class="cls-2">
          <path class="cls-3" d="M617.79,187.41h5.18c2.88,0,5.08.6,6.61,1.81,1.73,1.33,2.59,3.31,2.59,5.96,0,2.48-.95,4.36-2.85,5.66,1.84.46,3.22,1.39,4.13,2.79.91,1.4,1.36,2.89,1.36,4.47,0,1.3-.28,2.49-.84,3.59-.56,1.09-1.26,1.97-2.1,2.64-1.61,1.27-3.92,1.9-6.91,1.9h-7.17v-28.81ZM620.99,190.43v9.63h2.42c.43,0,.85-.02,1.25-.06.4-.04.89-.16,1.45-.35.56-.19,1.05-.44,1.47-.76.42-.32.77-.79,1.06-1.43.29-.63.43-1.37.43-2.2,0-.89-.17-1.66-.52-2.31-.35-.65-.73-1.13-1.17-1.45-.43-.32-.95-.56-1.56-.73-.6-.17-1.07-.27-1.38-.3-.32-.03-.63-.04-.95-.04h-2.5ZM620.99,202.91v10.28h3.67c2.33,0,4.02-.4,5.05-1.21,1.27-.92,1.9-2.25,1.9-3.97,0-1.93-.82-3.34-2.46-4.23-1.04-.58-2.66-.86-4.88-.86h-3.28Z"/>
        </g>
        <g class="cls-2">
          <path class="cls-3" d="M645.92,216.22v-12.4l-9.46-16.42h3.71l7.34,12.87,7.43-12.87h3.71l-9.55,16.42v12.4h-3.2Z"/>
          <path class="cls-3" d="M691.19,187.41l-15.72,25.79h15.29v3.02h-20.65l15.73-25.79h-13.69v-3.02h19.05Z"/>
          <path class="cls-3" d="M710.89,187.41v3.02h-11.75v8.55h11.4v3.02h-11.4v11.19h11.75v3.02h-14.95v-28.81h14.95Z"/>
          <path class="cls-3" d="M719.96,216.22h-3.2v-30.02l22.46,23.54v-22.33h3.2v30.11l-22.46-23.54v22.25Z"/>
          <path class="cls-3" d="M746.48,187.41h3.54l8.12,21.99,8.12-21.99h3.54l-11.66,30.54-11.66-30.54Z"/>
          <path class="cls-3" d="M773.87,187.41h3.2v28.81h-3.2v-28.81Z"/>
        </g>
        <g class="cls-2">
          <path class="cls-3" d="M799.93,191.42l-2.55,1.68c-.46-.89-1.02-1.61-1.69-2.16-.86-.66-1.94-.99-3.24-.99-1.44,0-2.61.41-3.5,1.23-.89.82-1.34,1.89-1.34,3.22,0,.98.36,1.81,1.08,2.51.58.58,1.58,1.18,3.02,1.81l2.76,1.21c2.04.89,3.53,1.8,4.45,2.72,1.38,1.38,2.07,3.12,2.07,5.23,0,2.62-.86,4.75-2.59,6.39-1.73,1.64-3.9,2.46-6.52,2.46s-4.68-.78-6.26-2.33c-1.3-1.27-2.19-2.97-2.68-5.1l3.11-.86c.2,1.44.78,2.67,1.73,3.67,1.06,1.07,2.45,1.6,4.15,1.6,1.84,0,3.27-.55,4.28-1.66,1.01-1.11,1.51-2.46,1.51-4.04,0-1.38-.48-2.51-1.43-3.37-.55-.52-1.7-1.18-3.46-1.99l-2.59-1.21c-1.76-.81-3.04-1.6-3.84-2.38-1.33-1.27-1.99-2.84-1.99-4.71,0-2.22.76-4.01,2.27-5.38,1.51-1.37,3.45-2.05,5.81-2.05,1.79,0,3.33.43,4.62,1.3,1.18.78,2.12,1.84,2.81,3.2Z"/>
        </g>
        <g class="cls-2">
          <path class="cls-3" d="M819.15,190.43h-7v25.79h-3.2v-25.79h-7v-3.02h17.19v3.02Z"/>
        </g>
        <g class="cls-2">
          <path class="cls-3" d="M840.79,216.22l-3.37-8.12h-12.27l-3.46,8.12h-3.54l13.26-30.2,12.92,30.2h-3.54ZM826.41,205.07h9.76l-4.84-11.53-4.92,11.53Z"/>
        </g>
        <g class="cls-2">
          <path class="cls-3" d="M863.35,191.42l-2.55,1.68c-.46-.89-1.02-1.61-1.68-2.16-.86-.66-1.94-.99-3.24-.99-1.44,0-2.61.41-3.5,1.23-.89.82-1.34,1.89-1.34,3.22,0,.98.36,1.81,1.08,2.51.58.58,1.58,1.18,3.02,1.81l2.76,1.21c2.04.89,3.53,1.8,4.45,2.72,1.38,1.38,2.07,3.12,2.07,5.23,0,2.62-.86,4.75-2.59,6.39-1.73,1.64-3.9,2.46-6.52,2.46s-4.68-.78-6.26-2.33c-1.3-1.27-2.19-2.97-2.68-5.1l3.11-.86c.2,1.44.78,2.67,1.73,3.67,1.06,1.07,2.45,1.6,4.15,1.6,1.84,0,3.27-.55,4.28-1.66,1.01-1.11,1.51-2.46,1.51-4.04,0-1.38-.48-2.51-1.43-3.37-.55-.52-1.7-1.18-3.46-1.99l-2.59-1.21c-1.76-.81-3.04-1.6-3.84-2.38-1.33-1.27-1.99-2.84-1.99-4.71,0-2.22.76-4.01,2.27-5.38,1.51-1.37,3.45-2.05,5.81-2.05,1.79,0,3.33.43,4.62,1.3,1.18.78,2.12,1.84,2.81,3.2Z"/>
        </g>
      </g>
    </g>
  </g>
</svg>