<?xml version="1.0" encoding="UTF-8"?>
<svg id="Layer_2" data-name="Layer 2" xmlns="http://www.w3.org/2000/svg" viewBox="0 0 1027.45 262.96">
  <defs>
    <style>
      .cls-1 {
        font-family: FuturaCyrillicBook, 'Futura PT';
        font-size: 43.2px;
      }

      .cls-1, .cls-2 {
        fill: #fff;
      }

      .cls-3 {
        fill: #e8c157;
      }

      .cls-4 {
        letter-spacing: -.01em;
      }

      .cls-5 {
        letter-spacing: -.05em;
      }

      .cls-6 {
        letter-spacing: -.04em;
      }

      .cls-7 {
        letter-spacing: -.02em;
      }
    </style>
  </defs>
  <g id="Layer_1-2" data-name="Layer 1">
    <g>
      <g>
        <g>
          <path class="cls-2" d="M461.41,178.58c-2.19.21-4.41.31-6.65.31s-7.43-.26-15.57-.78c-2.92-.21-7.02-.84-12.29-1.88-5.27-1.04-9.45-1.88-12.52-2.5-3.08-.63-7.77-1.72-14.09-3.29-6.31-1.57-11.11-2.79-14.4-3.68-3.29-.89-8.71-2.32-16.28-4.3-7.57-1.98-13.17-3.5-16.83-4.54l-4.7-1.1,61.04-109.09v-1.41c-.52.31-2.3.73-5.32,1.25-3.03.52-6.73.78-11.11.78h-49.93c-3.24,0-6.81-.31-10.72-.94-3.91-.62-6.65-1.25-8.22-1.88v27.23h1.56v-1.88c0-4.8,1.43-8.63,4.3-11.5,2.87-2.87,6.7-4.36,11.5-4.46h37.88l-57.44,101.74v1.41h1.1c7.3.1,16.38,2.4,27.23,6.89,4.9,1.98,10.23,4.2,15.97,6.65,5.74,2.45,11.37,4.93,16.9,7.43,5.53,2.51,11.32,4.8,17.37,6.89,6.05,2.08,11.89,3.89,17.53,5.4,5.63,1.51,10.25,2.37,13.85,2.58,3.6.21,6.81.31,9.62.31s6.47-.42,10.96-1.25c4.48-.84,9.21-2.71,14.17-5.63,4.95-2.92,9.47-6.84,13.54-11.74l-1.1-1.1c-4.7,1.88-10.49,3.24-17.37,4.07Z"/>
          <path class="cls-2" d="M508.99,139.53c-2.82,3.81-6.21,6.73-10.17,8.76s-8.56,3.05-13.77,3.05h-20.5v-43.98h20.66c3.86.11,7.04,1.41,9.55,3.91,2.51,2.51,3.76,5.63,3.76,9.39v1.41h1.57v-36h-1.57v1.25c0,3.76-1.25,6.91-3.76,9.47-2.51,2.56-5.69,3.89-9.55,3.99h-20.66v-45.55h27.83c3.9.45,7.07,1.91,9.5,4.38,2.87,2.92,4.3,6.78,4.3,11.58v1.88h1.57v-27.39c-.94.42-2.51.84-4.7,1.25-2.19.42-4.57.78-7.12,1.1-2.56.31-4.98.47-7.28.47h-59.64v1.56h2.03c2.71,0,5.03.97,6.97,2.9,1.93,1.93,2.95,4.25,3.05,6.97v86.71c-.11,2.71-1.12,5.03-3.05,6.97-1.93,1.93-4.25,2.89-6.97,2.89h-2.03v1.57h81.08l7.2-31.93h-1.57c-1.67,5.11-3.91,9.57-6.73,13.38Z"/>
          <path class="cls-2" d="M639.64,48.51h-34.44v1.56h2.97c2.71,0,4.98.91,6.81,2.74,1.83,1.83,2.79,4.1,2.9,6.81v61.87l-79.04-75.33h-1.57c1.25,7.2,1.88,13.72,1.88,19.57v81.23c0,2.61-.94,4.85-2.82,6.73-1.88,1.88-4.12,2.82-6.73,2.82h-2.97v1.57h47.42v-1.57h-2.97c-2.61,0-4.85-.94-6.73-2.82-1.88-1.88-2.82-4.12-2.82-6.73h-.02l-.11-62.02,79.17,75.33h1.41c-.62-3.34-1.1-6.55-1.41-9.62-.31-3.08-.47-6.55-.47-10.41V59.62c.1-2.71,1.1-4.98,2.98-6.81,1.88-1.83,4.12-2.74,6.73-2.74h2.82v-1.56h-12.99Z"/>
          <path class="cls-2" d="M752.88,53.28c-9.24-4.64-20.11-6.97-32.63-6.97s-23.4,2.32-32.64,6.97c-9.23,4.65-16.35,11.22-21.36,19.72-5.01,8.51-7.51,18.6-7.51,30.29s2.51,21.91,7.51,30.36c5.01,8.45,12.13,15,21.36,19.64,9.24,4.65,20.11,6.97,32.64,6.97s23.4-2.32,32.63-6.97c9.24-4.64,16.38-11.21,21.44-19.72,5.06-8.5,7.59-18.6,7.59-30.29s-2.53-21.91-7.59-30.37c-5.06-8.45-12.21-15-21.44-19.64ZM751.79,130.06c-2.87,7.51-6.99,13.33-12.37,17.45-5.38,4.12-11.76,6.18-19.17,6.18s-13.64-2.06-19.02-6.18c-5.38-4.12-9.52-9.94-12.44-17.45-2.92-7.51-4.38-16.43-4.38-26.76s1.46-19.25,4.38-26.77c2.92-7.51,7.07-13.33,12.44-17.45,5.37-4.12,11.71-6.18,19.02-6.18s13.8,2.06,19.17,6.18c5.37,4.12,9.49,9.94,12.37,17.45,2.87,7.51,4.3,16.44,4.3,26.77s-1.44,19.25-4.3,26.76Z"/>
          <path class="cls-2" d="M891.17,151.42c-1.88-1.72-3.97-3.99-6.26-6.81-1.46-1.88-3.08-4.07-4.85-6.57-1.78-2.51-3.47-4.98-5.09-7.44-1.62-2.45-2.98-4.51-4.07-6.18-1.1-1.67-1.7-2.61-1.8-2.82-1.77-2.71-4.04-5.42-6.81-8.14-2.77-2.71-5.82-4.59-9.16-5.63,5.95-.63,10.8-2.48,14.56-5.56,3.76-3.08,6.55-6.78,8.38-11.11,1.82-4.33,2.74-8.69,2.74-13.07,0-5.53-1.04-10.17-3.13-13.93-2.09-3.76-4.88-6.78-8.38-9.08-3.5-2.3-7.49-3.97-11.97-5.01-4.49-1.04-9.08-1.56-13.77-1.56h-53.69v1.56h2.04c2.71,0,5.03.97,6.97,2.9,1.93,1.93,2.94,4.25,3.05,6.97v86.71c-.11,2.71-1.12,5.03-3.05,6.97-1.93,1.93-4.25,2.89-6.97,2.89h-2.04v1.57h47.43v-1.57h-1.88c-2.71,0-5.06-.96-7.04-2.89-1.98-1.93-2.97-4.25-2.97-6.97V55.4h2.43c1.41,0,2.98-.02,4.7-.08,1.72-.05,3.31-.02,4.77.08,5.11.11,9.39,1.9,12.84,5.4,3.44,3.5,5.32,9,5.63,16.51.1,1.57.08,2.97-.08,4.23-.16,1.25-.34,2.35-.55,3.29-.84,4.59-2.3,8.19-4.38,10.8-2.09,2.61-4.46,4.49-7.12,5.63-2.66,1.15-5.4,1.72-8.22,1.72h-4.85v1.57c2.08.31,4.04,1.31,5.87,2.97,1.83,1.67,3.42,4.17,4.77,7.51.31.94.83,2.25,1.57,3.91.73,1.67,1.59,3.52,2.58,5.56.99,2.03,2.01,4.15,3.05,6.34,1.04,2.19,2.06,4.25,3.05,6.18.99,1.93,1.9,3.52,2.74,4.77,2.61,4.07,5.69,7.28,9.24,9.62,3.55,2.35,7.61,4.05,12.21,5.09,4.59,1.04,9.7,1.57,15.34,1.57h15.31v-1.57c-2.71-.1-5.09-.55-7.17-1.33-2.09-.78-4.07-2.03-5.95-3.76Z"/>
          <path class="cls-2" d="M1026.2,156.51c-2.4,0-4.85-.75-7.36-2.27-2.36-1.42-4.38-3.78-6.09-7.01l-46.5-101.85h-1.41c0,1.15-.37,2.74-1.1,4.77-.73,2.03-1.54,4.15-2.43,6.34-.89,2.19-1.72,4.15-2.5,5.87-.78,1.72-1.33,2.89-1.65,3.52l-36.44,82.44c-1.51,2.66-3.31,4.66-5.43,5.92-2.56,1.52-5.03,2.27-7.43,2.27h-1.41v1.57h33.5v-1.57h-1.41c-1.25,0-2.5-.39-3.76-1.17-1.25-.78-2.14-1.9-2.66-3.37-.5-1.38-.36-3.06.36-5l8.16-19.58h36.73l7.69,19.25h-.04c1.25,3.13,1.1,5.56-.47,7.28-1.56,1.72-3.39,2.58-5.48,2.58h-1.41v1.57h49.77v-1.57h-1.25ZM943.4,120.82l16.02-38.44,15.35,38.44h-31.37Z"/>
        </g>
        <g>
          <g>
            <path class="cls-3" d="M206.02,14.48c-22.79-6.55-43.05-6.06-64.52,4.33-26.72,12.93-53.22,32.49-79.72,46.59-1.22.65-6.16,3.53-6.91,2.92l4.19-11.85c24.9-13.08,48.94-30.39,73.8-43.19,21.04-10.83,42.66-13.82,65.16-4.75.9.36,10.13,4.11,8.01,5.96Z"/>
            <path class="cls-3" d="M252.01,83.43c10.66,11.54,19,28.57,20.26,44.45.1,1.31,1.1,6.23-1.52,5.67-3.6-8.35-5.44-17.32-9.82-25.39-8.52-15.68-21.24-25.15-35.95-34.45-24.64-15.6-51-28.99-75.89-44.2.57-1.18,10.15-5.35,12.08-3.9,23.94,16.21,50.74,28.42,74.8,44.35,6.33,4.19,10.94,7.95,16.04,13.47Z"/>
            <path class="cls-3" d="M123.2,232.96l-9.24,4.66-80.13-46.26C13.49,177.09.09,153.51,0,128.38c1.63-.31,2.27.34,2.87,1.78,1.73,4.16,2.63,11.13,4.62,16.09,4.42,11.03,11.81,21.19,20.45,29.25,30.21,21.42,63.24,38.84,95.26,57.46Z"/>
            <path class="cls-3" d="M216.37,194.64c.13,4.04.34,8.97-3.12,11.88-25.16,12.71-49.03,30.17-73.82,43.17-23.45,12.29-49.82,13.74-73.16.33-.42-2.26.93-1.57,2.48-1.45,10.89.87,18.15,4.89,31.2,4.09,29.7-1.8,79.13-37.42,106.42-53.02,1.2-.69,9.64-5.41,10.01-4.99Z"/>
            <path class="cls-3" d="M71.43,10.35c.44,1.94-1.09,2.46-2.06,3.62-19.46,23.39-25.42,33.3-26.96,65.18-1.48,30.43,1.62,61.25-.47,91.66-2.46-3.21-7.71-4.16-7.82-8.74,1.7-30.13-2.08-62.36,0-92.24,1.62-23.18,15.9-49.48,37.31-59.48Z"/>
            <path class="cls-3" d="M200.85,252.61l14.3-18.3c24.53-36.15,11.57-96.97,14.69-139.59.11-1.54-.8-3,1.54-2.56,2.3,2.83,6.57,4.83,6.8,8.74-4.33,41.95,11.66,98.82-16.19,134.04-1.81,2.29-18.93,19.78-21.13,17.68Z"/>
            <path class="cls-3" d="M130.44,0L63.15,39.33c-.67-.66,6.32-9.77,7.27-10.83C84.91,12.24,108.35-.3,130.44,0Z"/>
            <path class="cls-3" d="M209.13,223.63c-13.63,23.34-41.3,38.93-68.33,39.32l68.33-39.32Z"/>
            <path class="cls-3" d="M94.21,242.25c-26.99-2.13-53.75-16.46-67.29-40.36l67.29,40.36Z"/>
            <path class="cls-3" d="M245.36,61.08l-67.29-40.37c22.52.93,44.14,11.78,59.04,28.43,1.08,1.21,9,11.15,8.25,11.93Z"/>
            <path class="cls-3" d="M250.54,191.53v-78.68c1.62.81,2.91,4.52,3.61,6.23,7.72,18.99,8.36,38.17,3.11,57.95-1.23,4.62-3.03,11.41-6.72,14.5Z"/>
            <path class="cls-3" d="M21.74,150.12c-1.62-.81-2.91-4.51-3.61-6.23-7.27-17.85-8.19-36.8-3.78-55.51,1.25-5.32,3.63-13.08,7.39-16.94v78.68Z"/>
          </g>
          <path class="cls-3" d="M134.92,79.46c.61-.13.9.47,1,1,.3,1.74.18,4.13.45,5.95,4.18,28.25,19.4,37.82,46.29,41.07,1.73.21,1.91,1.36.39,1.62-1.7.29-4.09.18-5.96.46-28.34,4.22-37.91,19.3-41.16,46.19-.21,1.73-1.36,1.91-1.62.38-.61-3.61-.6-7.22-1.4-11.01-5.34-25.37-21.39-33.12-45.34-36.01-1.73-.21-1.91-1.36-.39-1.61,3.6-.61,7.28-.62,11.03-1.4,21.58-4.49,32.44-18.42,35.64-39.68.17-1.12.25-6.78,1.06-6.95Z"/>
        </g>
      </g>
      <text class="cls-1" transform="translate(614.08 216.22)"><tspan class="cls-7" x="0" y="0">B</tspan><tspan x="22.03" y="0">Y ZENVI</tspan><tspan class="cls-6" x="166.71" y="0">S</tspan><tspan class="cls-5" x="187.27" y="0">T</tspan><tspan class="cls-4" x="203.73" y="0">A</tspan><tspan x="230.13" y="0">S</tspan></text>
    </g>
  </g>
</svg>