<?xml version="1.0" encoding="UTF-8"?>
<svg id="Layer_2" data-name="Layer 2" xmlns="http://www.w3.org/2000/svg" viewBox="0 0 272.54 262.96">
  <defs>
    <style>
      .cls-1 {
        fill: #e8c157;
      }
    </style>
  </defs>
  <g id="Layer_2-2" data-name="Layer 2">
    <g>
      <g>
        <path class="cls-1" d="M206.02,14.49c-22.79-6.55-43.05-6.06-64.52,4.33-26.72,12.93-53.22,32.49-79.72,46.59-1.22.65-6.16,3.53-6.91,2.92l4.19-11.85c24.9-13.08,48.94-30.39,73.8-43.19,21.04-10.83,42.66-13.82,65.16-4.75.9.36,10.13,4.11,8.01,5.96h0Z"/>
        <path class="cls-1" d="M252.01,83.44c10.66,11.54,19,28.57,20.26,44.45.1,1.31,1.1,6.23-1.52,5.67-3.6-8.35-5.44-17.32-9.82-25.39-8.52-15.68-21.24-25.15-35.95-34.45-24.64-15.6-51-28.99-75.89-44.2.57-1.18,10.15-5.35,12.08-3.9,23.94,16.21,50.74,28.42,74.8,44.35,6.33,4.19,10.94,7.95,16.04,13.47h0Z"/>
        <path class="cls-1" d="M123.2,232.97l-9.24,4.66-80.13-46.26C13.49,177.1.09,153.52,0,128.39c1.63-.31,2.27.34,2.87,1.78,1.73,4.16,2.63,11.13,4.62,16.09,4.42,11.03,11.81,21.19,20.45,29.25,30.21,21.42,63.24,38.84,95.26,57.46h0Z"/>
        <path class="cls-1" d="M216.37,194.65c.13,4.04.34,8.97-3.12,11.88-25.16,12.71-49.03,30.17-73.82,43.17-23.45,12.29-49.82,13.74-73.16.33-.42-2.26.93-1.57,2.48-1.45,10.89.87,18.15,4.89,31.2,4.09,29.7-1.8,79.13-37.42,106.42-53.02,1.2-.69,9.64-5.41,10.01-4.99h0Z"/>
        <path class="cls-1" d="M71.43,10.36c.44,1.94-1.09,2.46-2.06,3.62-19.46,23.39-25.42,33.3-26.96,65.18-1.48,30.43,1.62,61.25-.47,91.66-2.46-3.21-7.71-4.16-7.82-8.74,1.7-30.13-2.08-62.36,0-92.24,1.62-23.18,15.9-49.48,37.31-59.48Z"/>
        <path class="cls-1" d="M200.85,252.62l14.3-18.3c24.53-36.15,11.57-96.97,14.69-139.59.11-1.54-.8-3,1.54-2.56,2.3,2.83,6.57,4.83,6.8,8.74-4.33,41.95,11.66,98.82-16.19,134.04-1.81,2.29-18.93,19.78-21.13,17.68h0Z"/>
        <path class="cls-1" d="M130.44,0L63.15,39.34c-.67-.66,6.32-9.77,7.27-10.83C84.91,12.25,108.35-.29,130.44,0Z"/>
        <path class="cls-1" d="M209.13,223.64c-13.63,23.34-41.3,38.93-68.33,39.32l68.33-39.32Z"/>
        <path class="cls-1" d="M94.21,242.26c-26.99-2.13-53.75-16.46-67.29-40.36l67.29,40.36Z"/>
        <path class="cls-1" d="M245.36,61.09l-67.29-40.37c22.52.93,44.14,11.78,59.04,28.43,1.08,1.21,9,11.15,8.25,11.93h0Z"/>
        <path class="cls-1" d="M250.54,191.54v-78.68c1.62.81,2.91,4.52,3.61,6.23,7.72,18.99,8.36,38.17,3.11,57.95-1.23,4.62-3.03,11.41-6.72,14.5h0Z"/>
        <path class="cls-1" d="M21.74,150.13c-1.62-.81-2.91-4.51-3.61-6.23-7.27-17.85-8.19-36.8-3.78-55.51,1.25-5.32,3.63-13.08,7.39-16.94v78.68Z"/>
      </g>
      <path class="cls-1" d="M134.92,79.47c.61-.13.9.47,1,1,.3,1.74.18,4.13.45,5.95,4.18,28.25,19.4,37.82,46.29,41.07,1.73.21,1.91,1.36.39,1.62-1.7.29-4.09.18-5.96.46-28.34,4.22-37.91,19.3-41.16,46.19-.21,1.73-1.36,1.91-1.62.38-.61-3.61-.6-7.22-1.4-11.01-5.34-25.37-21.39-33.12-45.34-36.01-1.73-.21-1.91-1.36-.39-1.61,3.6-.61,7.28-.62,11.03-1.4,21.58-4.49,32.44-18.42,35.64-39.68.17-1.12.25-6.78,1.06-6.95h0Z"/>
    </g>
  </g>
</svg>